<?xml version="1.0" standalone="no"?>
<!DOCTYPE svg PUBLIC "-//W3C//DTD SVG 20010904//EN"
 "http://www.w3.org/TR/2001/REC-SVG-20010904/DTD/svg10.dtd">
<svg version="1.0" xmlns="http://www.w3.org/2000/svg"
 width="256.000000pt" height="256.000000pt" viewBox="0 0 256.000000 256.000000"
 preserveAspectRatio="xMidYMid meet">
<metadata>
Created by potrace 1.11, written by Peter Selinger 2001-2013
</metadata>
<g transform="translate(0.000000,256.000000) scale(0.100000,-0.100000)"
fill="#000000" stroke="none">
<path d="M1180 2394 c-8 -1 -49 -8 -90 -15 -92 -16 -74 -12 -145 -33 -263 -79
-510 -282 -648 -536 -32 -58 -83 -179 -92 -220 -35 -149 -39 -175 -39 -310 0
-154 9 -216 51 -345 66 -207 198 -397 378 -542 54 -44 208 -129 293 -162 175
-69 425 -87 617 -45 146 31 133 27 241 78 134 64 226 127 324 226 153 153 252
331 301 545 40 171 29 427 -26 590 -83 247 -267 480 -480 607 -111 66 -260
126 -356 142 -19 3 -45 8 -59 11 -27 6 -245 14 -270 9z"/>
</g>
</svg>
